<?xml version="1.0" encoding="UTF-8" standalone="no"?>
<!-- Created with Inkscape (http://www.inkscape.org/) -->

<svg
   width="3.4628215in"
   height="1.2918288in"
   viewBox="0 0 87.955666 32.812451"
   version="1.1"
   id="svg1"
   inkscape:version="1.4 (86a8ad7, 2024-10-11)"
   sodipodi:docname="wrmwrks business card.svg"
   xmlns:inkscape="http://www.inkscape.org/namespaces/inkscape"
   xmlns:sodipodi="http://sodipodi.sourceforge.net/DTD/sodipodi-0.dtd"
   xmlns:xlink="http://www.w3.org/1999/xlink"
   xmlns="http://www.w3.org/2000/svg"
   xmlns:svg="http://www.w3.org/2000/svg">
  <sodipodi:namedview
     id="namedview1"
     pagecolor="#505050"
     bordercolor="#eeeeee"
     borderopacity="1"
     inkscape:showpageshadow="0"
     inkscape:pageopacity="0"
     inkscape:pagecheckerboard="0"
     inkscape:deskcolor="#505050"
     inkscape:document-units="mm"
     inkscape:zoom="4.0088384"
     inkscape:cx="166.75654"
     inkscape:cy="57.996851"
     inkscape:window-width="2560"
     inkscape:window-height="1369"
     inkscape:window-x="-8"
     inkscape:window-y="122"
     inkscape:window-maximized="1"
     inkscape:current-layer="layer1"
     showgrid="true">
    <inkscape:grid
       id="grid2"
       units="px"
       originx="-0.47216632"
       originy="-0.22927665"
       spacingx="0.92233324"
       spacingy="1"
       empcolor="#0099e5"
       empopacity="0.30196078"
       color="#0099e5"
       opacity="0.14901961"
       empspacing="4"
       enabled="false"
       visible="true" />
    <inkscape:grid
       type="modular"
       id="grid3"
       units="mm"
       originx="-0.47216632"
       originy="-0.22927665"
       spacingx="40"
       spacingy="40"
       empcolor="#0047cb"
       empopacity="0.30196078"
       color="#0099e5"
       opacity="0.14901961"
       empspacing="0"
       marginx="0"
       marginy="0"
       gapx="10"
       gapy="10"
       enabled="false"
       visible="true" />
    <inkscape:grid
       type="axonomgrid"
       id="grid4"
       units="mm"
       originx="-0.47216632"
       originy="-0.22927665"
       spacingx="1"
       spacingy="1"
       empcolor="#0099e5"
       empopacity="0.30196078"
       color="#0099e5"
       opacity="0.14901961"
       empspacing="5"
       dotted="false"
       gridanglex="30"
       gridanglez="30"
       enabled="false"
       visible="true" />
  </sodipodi:namedview>
  <defs
     id="defs1">
    <linearGradient
       id="linearGradient1"
       inkscape:collect="always">
      <stop
         style="stop-color:#450c0c;stop-opacity:1;"
         offset="0"
         id="stop1" />
      <stop
         style="stop-color:#000000;stop-opacity:0.16761364;"
         offset="1"
         id="stop2" />
    </linearGradient>
    <linearGradient
       inkscape:collect="always"
       xlink:href="#linearGradient1"
       id="linearGradient2"
       x1="30.049309"
       y1="24.820719"
       x2="76.729034"
       y2="24.820719"
       gradientUnits="userSpaceOnUse"
       gradientTransform="translate(-15.075576)" />
  </defs>
  <g
     inkscape:label="Front"
     inkscape:groupmode="layer"
     id="layer1"
     transform="matrix(0.8485687,0,0,0.8485687,6.2373106,2.7509041)"
     style="display:inline">
    <g
       id="g7"
       transform="matrix(1.5517691,0,0,1.5517691,-23.936004,-5.2917744)"
       inkscape:label="Title">
      <text
         xml:space="preserve"
         style="font-style:normal;font-variant:normal;font-weight:normal;font-stretch:normal;font-size:12.7px;font-family:Constantia;-inkscape-font-specification:Constantia;text-align:start;writing-mode:lr-tb;direction:ltr;text-anchor:start;fill:#b34c4c;fill-opacity:1;stroke:#000000;stroke-width:0.5;stroke-linecap:square;stroke-linejoin:bevel;stroke-dasharray:none;stroke-opacity:1"
         x="10.640541"
         y="21.747776"
         id="text5"
         inkscape:label="WRMWRKS"><tspan
           sodipodi:role="line"
           style="font-style:normal;font-variant:normal;font-weight:normal;font-stretch:normal;font-size:12.7px;font-family:'Earthworm Jim';-inkscape-font-specification:'Earthworm Jim';fill:#b34c4c;fill-opacity:1;stroke-width:0.5;stroke-dasharray:none"
           x="10.640541"
           y="21.747776"
           id="tspan6">wrmwrks</tspan></text>
      <text
         xml:space="preserve"
         style="font-style:normal;font-variant:normal;font-weight:100;font-stretch:normal;font-size:4.27103px;font-family:Momcake;-inkscape-font-specification:'Momcake Thin';text-align:start;writing-mode:lr-tb;direction:ltr;text-anchor:start;fill:#ffffff;fill-opacity:1;stroke:#ffffff;stroke-width:0.100891;stroke-linecap:square;stroke-linejoin:bevel;stroke-dasharray:none;stroke-opacity:1"
         x="16.234808"
         y="26.37439"
         id="text7"
         transform="scale(1.0091893,0.99089438)"
         inkscape:label="tagline"><tspan
           sodipodi:role="line"
           id="tspan7"
           style="font-style:normal;font-variant:normal;font-weight:100;font-stretch:normal;font-size:4.27103px;font-family:Momcake;-inkscape-font-specification:'Momcake Thin';fill:#ffffff;fill-opacity:1;stroke-width:0.100891;stroke:#ffffff;stroke-opacity:1"
           x="16.234808"
           y="26.37439">down-to-earth media solutions.</tspan></text>
    </g>
    <g
       id="g3"
       style="fill:none;stroke-width:0.7;stroke-dasharray:none"
       transform="matrix(1.3451249,0.02944684,-0.02502881,1.3449947,-16.252553,-11.179908)"
       inkscape:label="Worm">
      <path
         id="path12"
         style="display:inline;fill:#f4a2a2;fill-opacity:1;stroke:#000000;stroke-width:0.7;stroke-linecap:square;stroke-linejoin:bevel;stroke-dasharray:none;stroke-opacity:1"
         d="M 23.568166,6.0953439 C 18.303783,6.5764871 4.0389302,20.937196 10.297735,16.59341 c 0.01903,-0.01321 0.03728,-0.02812 0.05767,-0.04013 13.021491,-7.6700887 12.239742,-7.1749361 20.313403,-3.115844 3.956967,1.989394 6.248831,3.366656 9.174876,1.005566 3.141245,1.509366 8.186139,-0.508323 11.322893,0.12017 1.181904,0.325114 2.345196,1.785055 4.022002,0.202795 0,0 -2.837466,-2.263812 -2.702088,-4.663306 0.03647,-2.333359 2.373234,-2.1172154 3.453913,-3.8436567 C 49.917179,7.5087386 49.22685,7.5557892 44.146736,6.3857037 39.495936,5.3145006 36.264033,8.279176 35.233551,8.4354008 32.187179,8.8972418 27.521284,5.734045 23.568166,6.0953439 Z"
         sodipodi:nodetypes="sssssscccsss"
         inkscape:label="tail" />
      <path
         id="path15"
         style="display:inline;fill:#e64a65;fill-opacity:1;stroke:#000000;stroke-width:0.735641;stroke-linecap:square;stroke-linejoin:bevel;stroke-dasharray:none;stroke-opacity:1"
         d="m 61.488143,4.9239493 c -0.916652,0.03322 -1.80322,0.3654709 -2.545559,0.9539744 C 58.612126,5.6801994 58.26066,5.5276438 57.896107,5.4236944 55.44697,4.7277323 52.943925,6.3269767 52.29805,9.0004012 c -0.64603,2.6734638 0.808494,5.4142958 3.252991,6.1297758 l 0.06576,0.01858 c 1.319908,0.361064 2.7184,0.06425 3.81861,-0.810461 0.317209,0.193161 0.654261,0.344544 1.004097,0.450979 l 0.06574,0.01858 c 1.041428,0.28475 2.141239,0.161998 3.108462,-0.346943 0.332246,0.207337 0.686896,0.368509 1.055714,0.479774 l 0.06574,0.01858 c 2.453725,0.676088 2.665196,0.01309 1.527363,-3.057747 C 65.173592,9.1740586 64.509922,7.9412837 67.014478,5.2346644 65.966287,4.9382262 64.855951,5.0558371 63.879393,5.5667441 63.535026,5.354628 63.167041,5.1919662 62.784558,5.0827902 62.361535,4.9627308 61.924997,4.9092447 61.488143,4.9239493 Z"
         sodipodi:nodetypes="ccccccccccccccccc"
         inkscape:label="Middle" />
      <path
         style="fill:#ffffff;fill-opacity:1;stroke:#000000;stroke-width:0.281465;stroke-linecap:square;stroke-linejoin:bevel;stroke-dasharray:none;stroke-opacity:1"
         id="path19"
         sodipodi:type="arc"
         sodipodi:cx="-75.492538"
         sodipodi:cy="7.6183629"
         sodipodi:rx="1.1263411"
         sodipodi:ry="1.3512865"
         sodipodi:start="1.8325957"
         sodipodi:end="1.8177883"
         sodipodi:open="true"
         sodipodi:arc-type="arc"
         d="m -75.784057,8.9236055 a 1.1263411,1.3512865 0 0 1 -0.797515,-1.6501471 1.1263411,1.3512865 0 0 1 1.372489,-0.9628916 1.1263411,1.3512865 0 0 1 0.807677,1.6430181 1.1263411,1.3512865 0 0 1 -1.36651,0.975056"
         transform="matrix(-0.9999993,0.0011862,-0.00106585,0.99999943,0,0)"
         inkscape:label="backEye" />
      <path
         style="fill:#000000;fill-opacity:1;stroke:none;stroke-width:0.388874;stroke-linecap:square;stroke-linejoin:bevel;stroke-dasharray:none;stroke-opacity:1"
         d="m 75.725513,6.9126697 c -0.05689,0.3934332 -0.133916,0.4830619 0.01083,1.1919395 0.133872,0.6555391 0.534646,0.1912973 0.605253,-0.4007948 0.05204,-0.4362594 -0.05492,-0.8108147 -0.141454,-0.9313548 -0.180796,-0.2518445 -0.319771,-0.132875 -0.319771,-0.132875 0,0 -0.119508,0.028623 -0.154856,0.2730851 z"
         id="path21"
         sodipodi:nodetypes="sssscs"
         inkscape:label="backPupil" />
      <path
         style="fill:#f4a2a2;fill-opacity:1;stroke:#000000;stroke-width:0.588632;stroke-linecap:square;stroke-linejoin:bevel;stroke-dasharray:none;stroke-opacity:1"
         d="m 66.405055,5.8152576 c 0,0 7.884219,0.1753804 11.464578,3.3550959 0.697074,0.6190714 1.749047,2.0105325 1.202392,2.9094765 -1.235677,2.032 -3.700487,-0.160262 -7.097911,0.625966 -3.69092,0.854149 -7.60922,0.820305 -7.60922,0.820305 0,0 -1.307053,-1.171017 0.265237,-5.3466446 0.915913,-2.432451 1.774924,-2.3641988 1.774924,-2.3641988 z"
         id="path22"
         sodipodi:nodetypes="csascsc"
         inkscape:transform-center-x="0.95577087"
         inkscape:transform-center-y="-0.35102674"
         inkscape:label="head" />
      <path
         style="fill:#ffffff;fill-opacity:1;stroke:#000000;stroke-width:0.362726;stroke-linecap:square;stroke-linejoin:bevel;stroke-dasharray:none;stroke-opacity:1"
         id="path17"
         sodipodi:type="arc"
         sodipodi:cx="73.577255"
         sodipodi:cy="8.723381"
         sodipodi:rx="1.4711087"
         sodipodi:ry="1.7182266"
         sodipodi:start="1.8325957"
         sodipodi:end="1.8177883"
         sodipodi:open="true"
         sodipodi:arc-type="arc"
         d="m 73.196504,10.38306 a 1.4711087,1.7182266 0 0 1 -1.04163,-2.0982418 1.4711087,1.7182266 0 0 1 1.792601,-1.2243635 1.4711087,1.7182266 0 0 1 1.054903,2.0891774 1.4711087,1.7182266 0 0 1 -1.784792,1.2398309"
         inkscape:label="frontEye" />
      <path
         style="fill:#000000;fill-opacity:1;stroke:none;stroke-width:0.540255;stroke-linecap:square;stroke-linejoin:bevel;stroke-dasharray:none;stroke-opacity:1"
         id="path18"
         sodipodi:type="arc"
         sodipodi:cx="74.091576"
         sodipodi:cy="8.69625"
         sodipodi:rx="0.66931039"
         sodipodi:ry="1.0520208"
         sodipodi:start="1.8325957"
         sodipodi:end="1.8177883"
         sodipodi:open="true"
         sodipodi:arc-type="arc"
         d="m 73.918345,9.712424 a 0.66931039,1.0520208 0 0 1 -0.47391,-1.2846935 0.66931039,1.0520208 0 0 1 0.81558,-0.7496426 0.66931039,1.0520208 0 0 1 0.479949,1.2791433 0.66931039,1.0520208 0 0 1 -0.812027,0.7591131"
         inkscape:label="frontPupil" />
      <path
         style="display:inline;fill:none;fill-opacity:1;stroke:#000000;stroke-width:0.346034;stroke-linecap:square;stroke-linejoin:bevel;stroke-opacity:1"
         d="m 73.08649,12.318507 c 0,0 -1.933136,-0.654724 -2.416941,-1.369832"
         id="path1"
         sodipodi:nodetypes="cc"
         inkscape:label="mouth" />
      <path
         style="display:inline;fill:none;fill-opacity:1;stroke:#000000;stroke-width:0.346034;stroke-linecap:square;stroke-linejoin:bevel;stroke-opacity:1"
         d="m 69.49615,10.940162 c 0,0 0.781658,0.279977 1.099082,0.09316 0.311514,-0.183339 0.445577,-0.988476 0.445577,-0.988476"
         id="path2"
         sodipodi:nodetypes="csc"
         inkscape:label="cheek" />
    </g>
  </g>
  <g
     inkscape:groupmode="layer"
     id="layer4"
     inkscape:label="camera"
     transform="matrix(0.47974946,0,0,0.47974946,53.976648,10.473552)"
     style="display:none">
    <path
       style="fill:#b6f1b4;fill-opacity:0.244526;stroke-width:2.22824;stroke-linecap:square;stroke-linejoin:round"
       d="M 43.147577,20.748398 V 32.579573 L 57.732298,28.671607 V 16.3461 Z"
       id="path4" />
    <path
       style="fill:#b6f1b4;fill-opacity:0.244526;stroke-width:2.22824;stroke-linecap:square;stroke-linejoin:round"
       d="M 58.431179,36.653937 V 48.485112 L 73.0159,44.577146 V 32.251638 Z"
       id="path5" />
    <path
       style="fill:#b6f1b4;fill-opacity:0.244526;stroke-width:2.22824;stroke-linecap:square;stroke-linejoin:round"
       d="M 54.441944,37.350735 V 49.18191 L 69.026665,45.273944 V 32.948436 Z"
       id="path6" />
    <path
       style="fill:#b6f1b4;fill-opacity:0.244526;stroke-width:2.22824;stroke-linecap:square;stroke-linejoin:round"
       d="M 51.915581,35.505317 V 47.336492 L 66.500302,43.428526 V 31.103019 Z"
       id="path36" />
    <path
       style="fill:#b6f1b4;fill-opacity:0.244526;stroke-width:2.22824;stroke-linecap:square;stroke-linejoin:round"
       d="M 37.529405,36.138216 V 47.969391 L 52.114126,44.061425 V 31.735917 Z"
       id="path37" />
    <path
       style="fill:#b6f1b4;fill-opacity:0.244526;stroke-width:2.22824;stroke-linecap:square;stroke-linejoin:round"
       d="M 33.929283,32.360229 V 44.191404 L 48.514004,40.283438 V 27.95793 Z"
       id="path38" />
    <path
       style="fill:#b6f1b4;fill-opacity:0.244526;stroke-width:2.22824;stroke-linecap:square;stroke-linejoin:round"
       d="M 43.147579,9.9505448 V 21.781721 L 57.7323,17.873755 V 5.5482468 Z"
       id="path39" />
    <path
       style="fill:#b6f1b4;fill-opacity:0.244526;stroke-width:2.22824;stroke-linecap:square;stroke-linejoin:round"
       d="M 53.567282,26.634308 V 38.465483 L 68.152003,34.557517 V 22.232009 Z"
       id="path40" />
    <path
       style="fill:#b6f1b4;fill-opacity:0.244526;stroke-width:2.22824;stroke-linecap:square;stroke-linejoin:round"
       d="M 41.212143,17.11692 V 28.948095 L 55.796864,25.040129 V 12.714621 Z"
       id="path41" />
    <path
       style="fill:#b6f1b4;fill-opacity:0.244526;stroke-width:2.22824;stroke-linecap:square;stroke-linejoin:round"
       d="M 47.343519,19.843566 V 31.674741 L 61.92824,27.766775 V 15.441268 Z"
       id="path42" />
    <path
       style="fill:#b6f1b4;fill-opacity:0.244526;stroke-width:2.22824;stroke-linecap:square;stroke-linejoin:round"
       d="M 50.467376,28.939648 V 40.770823 L 65.052097,36.862857 V 24.537349 Z"
       id="path43" />
    <path
       style="fill:#b6f1b4;fill-opacity:0.244526;stroke-width:2.22824;stroke-linecap:square;stroke-linejoin:round"
       d="M 43.657079,20.297762 V 32.128937 L 58.2418,28.220971 V 15.895463 Z"
       id="path44" />
    <text
       xml:space="preserve"
       style="font-size:8.82405px;font-family:momcake;-inkscape-font-specification:momcake;text-align:start;writing-mode:lr-tb;direction:ltr;text-anchor:start;fill:#ba2020;fill-opacity:0.726277;stroke-width:2.22824;stroke-linecap:square;stroke-linejoin:round"
       x="39.898304"
       y="46.656967"
       id="text44"
       transform="skewY(-21.763737)"><tspan
         sodipodi:role="line"
         id="tspan44"
         style="fill:#ba2020;fill-opacity:0.726277;stroke-width:2.22824"
         x="39.898304"
         y="46.656967">Worm</tspan></text>
  </g>
  <g
     inkscape:groupmode="layer"
     id="layer3"
     inkscape:label="Back"
     style="display:none"
     transform="translate(-0.4721663,-0.22927666)">
    <text
       xml:space="preserve"
       style="font-size:4.23333px;text-align:start;writing-mode:lr-tb;direction:ltr;text-anchor:start;fill:#000000;fill-opacity:1;stroke:none;stroke-width:0.1;stroke-linecap:square;stroke-linejoin:bevel;stroke-dasharray:none;stroke-opacity:1"
       x="48.829556"
       y="8.2902164"
       id="text1"
       inkscape:label="email"><tspan
         sodipodi:role="line"
         id="tspan1"
         style="font-style:normal;font-variant:normal;font-weight:normal;font-stretch:normal;font-size:4.23333px;font-family:Momcake;-inkscape-font-specification:Momcake;fill:#000000;fill-opacity:1;stroke:none;stroke-width:0.1;stroke-dasharray:none;stroke-opacity:1"
         x="48.829556"
         y="8.2902164">ethan@wrmwrks.net</tspan></text>
    <text
       xml:space="preserve"
       style="font-style:normal;font-variant:normal;font-weight:normal;font-stretch:normal;font-size:4.23333px;font-family:Constantia;-inkscape-font-specification:Constantia;text-align:start;writing-mode:lr-tb;direction:ltr;text-anchor:start;fill:#000000;fill-opacity:1;stroke:none;stroke-width:0.1;stroke-linecap:square;stroke-linejoin:bevel;stroke-dasharray:none;stroke-opacity:1"
       x="5.6316376"
       y="8.4015102"
       id="text3"
       inkscape:label="insta"><tspan
         sodipodi:role="line"
         style="font-style:normal;font-variant:normal;font-weight:normal;font-stretch:normal;font-size:4.23333px;font-family:momcake;-inkscape-font-specification:momcake;fill:#000000;fill-opacity:1;stroke:none;stroke-width:0.1;stroke-opacity:1"
         x="5.6316376"
         y="8.4015102"
         id="tspan4">@bxchtold</tspan></text>
    <text
       xml:space="preserve"
       style="font-style:normal;font-variant:normal;font-weight:normal;font-stretch:normal;font-size:10.7768px;font-family:Constantia;-inkscape-font-specification:Constantia;text-align:start;writing-mode:lr-tb;direction:ltr;text-anchor:start;display:inline;fill:#b34c4c;fill-opacity:1;stroke:#000000;stroke-width:0.424284;stroke-linecap:square;stroke-linejoin:bevel;stroke-dasharray:none;stroke-opacity:1"
       x="5.2418919"
       y="46.080059"
       id="text5-8"
       inkscape:label="WRMWRKS"><tspan
         sodipodi:role="line"
         style="font-style:normal;font-variant:normal;font-weight:normal;font-stretch:normal;font-size:10.7768px;font-family:'Earthworm Jim';-inkscape-font-specification:'Earthworm Jim';fill:#b34c4c;fill-opacity:1;stroke-width:0.424284;stroke-dasharray:none"
         x="5.2418919"
         y="46.080059"
         id="tspan6-8">wrmwrks.Net</tspan></text>
  </g>
</svg>
